<svg version="1.1" class="crystaleye-svg redpiranha app-vendor-redpiranha app-free app-category-gateway app-sub-category-antimalware" viewBox="0 0 400 400" preserveAspectRatio="xMinYMin" xmlns="http://www.w3.org/2000/svg" xmlns:xlink= "http://www.w3.org/1999/xlink">
<path fill="#AA0707" d="M91.666,184.647"/>
<path fill="#AA0707" d="M123.245,247.805"/>
<path fill="#AA0707" d="M91.666,184.647"/>
<path fill="#AA0707" d="M123.245,247.805"/>
<g>
	<path fill="#686868" d="M199.977,2.25C127.472,62.909,71.78,34.885,44.098,32.241c0,121.287,0.987,100.522,0.987,142.711
		c0,100.856,89.009,197.097,154.907,222.798c65.938-25.701,154.899-121.941,154.899-222.798c0-42.173,1.011-21.408,1.011-142.711
		C328.167,34.885,272.491,62.909,199.977,2.25z M341.46,177.137c0,92.111-81.283,180.017-141.483,203.462
		C139.763,357.139,58.501,269.248,58.501,177.137c0-38.542-0.917-19.582-0.917-130.358C82.88,49.181,133.729,74.78,199.96,19.4
		c66.249,55.38,117.09,29.797,142.37,27.379C342.361,157.539,341.46,138.61,341.46,177.137z"/>
	<path fill="#686868" d="M97.176,250L270.299,76.886c-19.9-0.746-43.596-7.455-70.322-29.805
		C143.905,93.965,100.822,72.3,79.406,70.263c0,93.822,0.801,77.738,0.801,110.38C80.207,204.586,86.713,228.203,97.176,250z"/>
	<g>
		<path fill="#686868" d="M320.471,111.751c0.031-10.828,0.063-24.246,0.063-41.488c-2.581,0.272-5.535,0.809-8.737,1.462
			L110.298,273.26c6.321,9.857,13.48,19.123,20.936,27.707L320.471,111.751z"/>
		<path fill="#686868" d="M149.269,319.313c16.861,15.547,34.625,27.363,50.708,33.613
			c50.981-19.871,119.779-94.311,119.779-172.315c0-16.263,0.202-20.444,0.373-32.198L149.269,319.313z"/>
	</g>
</g>
</svg>
